<?xml version="1.0" encoding="UTF-8" standalone="no"?>
<!DOCTYPE svg PUBLIC "-//W3C//DTD SVG 1.1//EN"
 "http://www.w3.org/Graphics/SVG/1.1/DTD/svg11.dtd">
<!-- Generated by graphviz version 8.0.5 (20230430.1635)
 -->
<!-- Title: plugins/base.h Pages: 1 -->
<svg width="267pt" height="138pt"
 viewBox="0.00 0.00 266.50 137.75" xmlns="http://www.w3.org/2000/svg" xmlns:xlink="http://www.w3.org/1999/xlink">
<g id="graph0" class="graph" transform="scale(1 1) rotate(0) translate(4 133.75)">
<title>plugins/base.h</title>
<!-- Node1 -->
<g id="node1" class="node">
<title>Node1</title>
<g id="a_node1"><a xlink:title=" ">
<polygon fill="#999999" stroke="#666666" points="132.62,-129.75 54.38,-129.75 54.38,-110.5 132.62,-110.5 132.62,-129.75"/>
<text text-anchor="middle" x="93.5" y="-116.25" font-family="Helvetica,sans-Serif" font-size="10.00">plugins/base.h</text>
</a>
</g>
</g>
<!-- Node2 -->
<g id="node2" class="node">
<title>Node2</title>
<g id="a_node2"><a xlink:title=" ">
<polygon fill="#e0e0e0" stroke="#999999" points="49,-74.5 0,-74.5 0,-55.25 49,-55.25 49,-74.5"/>
<text text-anchor="middle" x="24.5" y="-61" font-family="Helvetica,sans-Serif" font-size="10.00">QString</text>
</a>
</g>
</g>
<!-- Node1&#45;&gt;Node2 -->
<g id="edge1" class="edge">
<title>Node1&#45;&gt;Node2</title>
<path fill="none" stroke="#63b8ff" d="M81.8,-110.09C71.62,-102.24 56.67,-90.7 44.58,-81.37"/>
<polygon fill="#63b8ff" stroke="#63b8ff" points="47.09,-78.11 37.03,-74.77 42.81,-83.66 47.09,-78.11"/>
</g>
<!-- Node3 -->
<g id="node3" class="node">
<title>Node3</title>
<g id="a_node3"><a xlink:title=" ">
<polygon fill="#e0e0e0" stroke="#999999" points="120.25,-74.5 66.75,-74.5 66.75,-55.25 120.25,-55.25 120.25,-74.5"/>
<text text-anchor="middle" x="93.5" y="-61" font-family="Helvetica,sans-Serif" font-size="10.00">QtPlugin</text>
</a>
</g>
</g>
<!-- Node1&#45;&gt;Node3 -->
<g id="edge2" class="edge">
<title>Node1&#45;&gt;Node3</title>
<path fill="none" stroke="#63b8ff" d="M93.5,-110.33C93.5,-103.67 93.5,-94.24 93.5,-85.78"/>
<polygon fill="#63b8ff" stroke="#63b8ff" points="97,-85.86 93.5,-75.86 90,-85.86 97,-85.86"/>
</g>
<!-- Node4 -->
<g id="node4" class="node">
<title>Node4</title>
<g id="a_node4"><a xlink:href="bridge_8h.html" target="_top" xlink:title=" ">
<polygon fill="white" stroke="#666666" points="188.38,-74.5 138.62,-74.5 138.62,-55.25 188.38,-55.25 188.38,-74.5"/>
<text text-anchor="middle" x="163.5" y="-61" font-family="Helvetica,sans-Serif" font-size="10.00">bridge.h</text>
</a>
</g>
</g>
<!-- Node1&#45;&gt;Node4 -->
<g id="edge3" class="edge">
<title>Node1&#45;&gt;Node4</title>
<path fill="none" stroke="#63b8ff" d="M105.37,-110.09C115.69,-102.24 130.87,-90.7 143.13,-81.37"/>
<polygon fill="#63b8ff" stroke="#63b8ff" points="144.96,-83.61 150.8,-74.77 140.72,-78.04 144.96,-83.61"/>
</g>
<!-- Node5 -->
<g id="node5" class="node">
<title>Node5</title>
<g id="a_node5"><a xlink:title=" ">
<polygon fill="#e0e0e0" stroke="#999999" points="120.38,-19.25 28.62,-19.25 28.62,0 120.38,0 120.38,-19.25"/>
<text text-anchor="middle" x="74.5" y="-5.75" font-family="Helvetica,sans-Serif" font-size="10.00">QCoreApplication</text>
</a>
</g>
</g>
<!-- Node4&#45;&gt;Node5 -->
<g id="edge4" class="edge">
<title>Node4&#45;&gt;Node5</title>
<path fill="none" stroke="#63b8ff" d="M148.4,-54.84C134.85,-46.73 114.71,-34.68 98.88,-25.21"/>
<polygon fill="#63b8ff" stroke="#63b8ff" points="101.05,-21.83 90.67,-19.7 97.46,-27.84 101.05,-21.83"/>
</g>
<!-- Node6 -->
<g id="node6" class="node">
<title>Node6</title>
<g id="a_node6"><a xlink:title=" ">
<polygon fill="#e0e0e0" stroke="#999999" points="188.38,-19.25 138.62,-19.25 138.62,0 188.38,0 188.38,-19.25"/>
<text text-anchor="middle" x="163.5" y="-5.75" font-family="Helvetica,sans-Serif" font-size="10.00">QMutex</text>
</a>
</g>
</g>
<!-- Node4&#45;&gt;Node6 -->
<g id="edge5" class="edge">
<title>Node4&#45;&gt;Node6</title>
<path fill="none" stroke="#63b8ff" d="M163.5,-55.08C163.5,-48.42 163.5,-38.99 163.5,-30.53"/>
<polygon fill="#63b8ff" stroke="#63b8ff" points="167,-30.61 163.5,-20.61 160,-30.61 167,-30.61"/>
</g>
<!-- Node7 -->
<g id="node7" class="node">
<title>Node7</title>
<g id="a_node7"><a xlink:title=" ">
<polygon fill="#e0e0e0" stroke="#999999" points="258.5,-19.25 206.5,-19.25 206.5,0 258.5,0 258.5,-19.25"/>
<text text-anchor="middle" x="232.5" y="-5.75" font-family="Helvetica,sans-Serif" font-size="10.00">QObject</text>
</a>
</g>
</g>
<!-- Node4&#45;&gt;Node7 -->
<g id="edge6" class="edge">
<title>Node4&#45;&gt;Node7</title>
<path fill="none" stroke="#63b8ff" d="M175.2,-54.84C185.38,-46.99 200.33,-35.45 212.42,-26.12"/>
<polygon fill="#63b8ff" stroke="#63b8ff" points="214.19,-28.41 219.97,-19.52 209.91,-22.86 214.19,-28.41"/>
</g>
</g>
</svg>
