<?xml version="1.0" encoding="UTF-8" standalone="no"?>
<!DOCTYPE svg PUBLIC "-//W3C//DTD SVG 1.1//EN"
 "http://www.w3.org/Graphics/SVG/1.1/DTD/svg11.dtd">
<!-- Generated by graphviz version 8.0.5 (20230430.1635)
 -->
<!-- Title: plugins/bridge.h Pages: 1 -->
<svg width="238pt" height="83pt"
 viewBox="0.00 0.00 237.88 82.50" xmlns="http://www.w3.org/2000/svg" xmlns:xlink="http://www.w3.org/1999/xlink">
<g id="graph0" class="graph" transform="scale(1 1) rotate(0) translate(4 78.5)">
<title>plugins/bridge.h</title>
<!-- Node1 -->
<g id="node1" class="node">
<title>Node1</title>
<g id="a_node1"><a xlink:title=" ">
<polygon fill="#999999" stroke="#666666" points="176.62,-74.5 93.12,-74.5 93.12,-55.25 176.62,-55.25 176.62,-74.5"/>
<text text-anchor="middle" x="134.88" y="-61" font-family="Helvetica,sans-Serif" font-size="10.00">plugins/bridge.h</text>
</a>
</g>
</g>
<!-- Node2 -->
<g id="node2" class="node">
<title>Node2</title>
<g id="a_node2"><a xlink:title=" ">
<polygon fill="#e0e0e0" stroke="#999999" points="91.75,-19.25 0,-19.25 0,0 91.75,0 91.75,-19.25"/>
<text text-anchor="middle" x="45.88" y="-5.75" font-family="Helvetica,sans-Serif" font-size="10.00">QCoreApplication</text>
</a>
</g>
</g>
<!-- Node1&#45;&gt;Node2 -->
<g id="edge1" class="edge">
<title>Node1&#45;&gt;Node2</title>
<path fill="none" stroke="#63b8ff" d="M119.78,-54.84C106.22,-46.73 86.09,-34.68 70.25,-25.21"/>
<polygon fill="#63b8ff" stroke="#63b8ff" points="72.43,-21.83 62.05,-19.7 68.83,-27.84 72.43,-21.83"/>
</g>
<!-- Node3 -->
<g id="node3" class="node">
<title>Node3</title>
<g id="a_node3"><a xlink:title=" ">
<polygon fill="#e0e0e0" stroke="#999999" points="159.75,-19.25 110,-19.25 110,0 159.75,0 159.75,-19.25"/>
<text text-anchor="middle" x="134.88" y="-5.75" font-family="Helvetica,sans-Serif" font-size="10.00">QMutex</text>
</a>
</g>
</g>
<!-- Node1&#45;&gt;Node3 -->
<g id="edge2" class="edge">
<title>Node1&#45;&gt;Node3</title>
<path fill="none" stroke="#63b8ff" d="M134.88,-55.08C134.88,-48.42 134.88,-38.99 134.88,-30.53"/>
<polygon fill="#63b8ff" stroke="#63b8ff" points="138.38,-30.61 134.88,-20.61 131.38,-30.61 138.38,-30.61"/>
</g>
<!-- Node4 -->
<g id="node4" class="node">
<title>Node4</title>
<g id="a_node4"><a xlink:title=" ">
<polygon fill="#e0e0e0" stroke="#999999" points="229.88,-19.25 177.88,-19.25 177.88,0 229.88,0 229.88,-19.25"/>
<text text-anchor="middle" x="203.88" y="-5.75" font-family="Helvetica,sans-Serif" font-size="10.00">QObject</text>
</a>
</g>
</g>
<!-- Node1&#45;&gt;Node4 -->
<g id="edge3" class="edge">
<title>Node1&#45;&gt;Node4</title>
<path fill="none" stroke="#63b8ff" d="M146.58,-54.84C156.75,-46.99 171.71,-35.45 183.79,-26.12"/>
<polygon fill="#63b8ff" stroke="#63b8ff" points="185.56,-28.41 191.34,-19.52 181.29,-22.86 185.56,-28.41"/>
</g>
</g>
</svg>
