<?xml version="1.0" encoding="UTF-8" standalone="no"?>
<!DOCTYPE svg PUBLIC "-//W3C//DTD SVG 1.1//EN"
 "http://www.w3.org/Graphics/SVG/1.1/DTD/svg11.dtd">
<!-- Generated by graphviz version 8.0.5 (20230430.1635)
 -->
<!-- Title: PluginInterface Pages: 1 -->
<svg width="89pt" height="150pt"
 viewBox="0.00 0.00 89.25 150.00" xmlns="http://www.w3.org/2000/svg" xmlns:xlink="http://www.w3.org/1999/xlink">
<g id="graph0" class="graph" transform="scale(1 1) rotate(0) translate(4 146)">
<title>PluginInterface</title>
<!-- Node1 -->
<g id="node1" class="node">
<title>Node1</title>
<g id="a_node1"><a xlink:title="The PluginInterface class is an abstract interface for plugin functionality.">
<polygon fill="#999999" stroke="#666666" points="81.25,-19.25 0,-19.25 0,0 81.25,0 81.25,-19.25"/>
<text text-anchor="middle" x="40.62" y="-5.75" font-family="Helvetica,sans-Serif" font-size="10.00">PluginInterface</text>
</a>
</g>
</g>
<!-- Node2 -->
<g id="node2" class="node">
<title>Node2</title>
<g id="a_node2"><a xlink:href="classPluginBridge.html" target="_top" xlink:title="The PluginBridge class provides a bridge for communication between plugins and the host application.">
<polygon fill="white" stroke="#666666" points="76,-85.75 5.25,-85.75 5.25,-66.5 76,-66.5 76,-85.75"/>
<text text-anchor="middle" x="40.62" y="-72.25" font-family="Helvetica,sans-Serif" font-size="10.00">PluginBridge</text>
</a>
</g>
</g>
<!-- Node2&#45;&gt;Node1 -->
<g id="edge1" class="edge">
<title>Node2&#45;&gt;Node1</title>
<path fill="none" stroke="#9a32cd" stroke-dasharray="5,2" d="M40.62,-55.4C40.62,-43.43 40.62,-28.73 40.62,-19.52"/>
<polygon fill="#9a32cd" stroke="#9a32cd" points="37.13,-55.16 40.62,-65.16 44.13,-55.16 37.13,-55.16"/>
<text text-anchor="middle" x="54.88" y="-39" font-family="Helvetica,sans-Serif" font-size="10.00"> bridge</text>
</g>
<!-- Node3 -->
<g id="node3" class="node">
<title>Node3</title>
<g id="a_node3"><a xlink:title=" ">
<polygon fill="white" stroke="#666666" points="66.62,-142 14.62,-142 14.62,-122.75 66.62,-122.75 66.62,-142"/>
<text text-anchor="middle" x="40.62" y="-128.5" font-family="Helvetica,sans-Serif" font-size="10.00">QObject</text>
</a>
</g>
</g>
<!-- Node3&#45;&gt;Node2 -->
<g id="edge2" class="edge">
<title>Node3&#45;&gt;Node2</title>
<path fill="none" stroke="#63b8ff" d="M40.62,-111.49C40.62,-102.7 40.62,-92.82 40.62,-85.92"/>
<polygon fill="#63b8ff" stroke="#63b8ff" points="37.13,-111.42 40.62,-121.42 44.13,-111.42 37.13,-111.42"/>
</g>
</g>
</svg>
