<svg enable-background="new 0 0 512 512" viewBox="0 0 512 512" xmlns="http://www.w3.org/2000/svg"><g transform="translate(1 1)"><path d="m255.853 305.347-7.68-10.24 17.067-17.067 13.653 9.387c4.267 2.56 8.533 4.267 12.8 4.267 3.413-8.533 5.12-17.92 5.12-28.16v-170.667c0-46.933-38.4-85.333-85.333-85.333s-86.187 38.4-86.187 85.333v170.667c0 46.933 38.4 85.333 85.333 85.333 16.213 0 30.72-4.267 43.52-11.947 7.681-8.533 8.534-21.333 1.707-31.573" fill="#ffa800"/><path d="m236.227 305.347-6.827-10.24 14.507-17.067 11.093 9.387c3.413 2.56 7.68 4.267 11.093 4.267 2.56-8.533 4.267-17.92 4.267-28.16v-170.667c0-46.933-32.427-85.333-72.533-85.333s-72.533 38.4-72.533 85.333v170.667c0 46.933 32.427 85.333 72.533 85.333 13.653 0 26.453-4.267 36.693-11.947 6.827-8.533 7.68-21.333 1.707-31.573" fill="#ffe100"/><path d="m210.627 7.533h4.267c-44.373 2.56-64 39.253-64 85.333v170.667c0 46.08 19.627 82.773 64 85.333-1.707 0-2.56 0-4.267 0-46.933 0-85.333-38.4-85.333-85.333v-170.666c-.001-46.934 38.399-85.334 85.333-85.334" fill="#fff"/><path d="m432.493 347.16-11.947-2.56c-17.92-3.413-26.453-24.747-15.36-40.107l7.68-10.24-17.066-17.066-10.24 6.827c-15.36 10.24-36.693.853-39.253-17.067l-2.56-11.947h-23.893l-3.413 16.213c-3.413 17.92-23.893 26.453-39.253 16.213l-13.653-9.387-17.067 17.067 7.68 10.24c11.093 15.36 2.56 36.693-15.36 40.107l-11.093 1.707v23.893l12.8 1.707c18.773 2.56 27.307 23.893 17.067 39.253l-6.827 10.24 17.065 17.067 10.24-7.68c15.36-11.093 36.693-2.56 40.107 15.36l2.56 11.947h23.893l1.707-9.387c2.56-18.773 24.747-28.16 40.107-16.213l7.68 5.12 17.066-17.067-6.827-10.24c-10.24-15.36-.853-36.693 17.067-39.253l12.8-1.707v-23.04z" fill="#00ad55"/><path d="m406.893 347.16-11.093-2.56c-16.213-3.413-23.04-24.747-13.653-40.107l6.827-10.24-16.213-5.12-7.68-4.267c-13.653 10.24-31.573.853-34.133-17.067l-1.708-12.799-13.653.853-2.56 16.213c-3.413 17.92-28.16 25.6-40.96 15.36l-11.947-9.387-14.507 17.067 6.827 10.24c9.387 15.36 2.56 36.693-13.653 40.107l-11.093 1.707v23.893l11.093 1.707c16.213 2.56 23.893 23.893 15.36 39.253l-5.973 10.24 14.507 17.067 9.387-7.68c12.8-11.093 44.373-2.56 47.787 15.36l1.707 12.8h7.68l.853-9.387c2.56-18.773 21.333-28.16 34.987-16.213h6.827l13.653-11.093-5.973-10.24c-9.387-15.36-.853-36.693 15.36-39.253l11.093-1.707v-24.747z" fill="#00da6c"/><path d="m364.227 357.4c0 18.773-15.36 34.133-34.133 34.133s-34.133-15.36-34.133-34.133 15.36-34.133 34.133-34.133 34.133 15.36 34.133 34.133" fill="#e4667f"/><path d="m295.96 502.467h-170.667c0-18.773 15.36-34.133 34.133-34.133h102.4c18.774-.001 34.134 15.359 34.134 34.133" fill="#ffa800"/><path d="m270.36 502.467h-145.067c0-18.773 15.36-34.133 34.133-34.133h76.8c18.774-.001 34.134 15.359 34.134 34.133" fill="#ffe100"/><path d="m244.76 178.2c0 18.773-15.36 34.133-34.133 34.133s-34.133-15.36-34.133-34.133 15.36-34.133 34.133-34.133 34.133 15.36 34.133 34.133" fill="#63d3fd"/><path d="m343.747 468.333h-23.893c-4.267 0-7.68-2.56-8.533-6.827l-2.56-11.947c-.853-5.973-5.12-10.24-10.24-12.8s-11.093-1.707-16.213 1.707l-10.24 7.68c-3.413 2.56-7.68 1.707-11.093-.853l-17.067-17.067c-2.56-2.56-3.413-7.68-.853-11.093l6.827-10.24c3.413-5.12 4.267-11.093 1.707-16.213s-6.827-9.387-12.8-10.24l-12.8-1.707c-4.267-.853-6.827-4.267-6.827-8.533v-23.893c0-4.267 2.56-7.68 6.827-8.533l11.947-2.56c5.973-.853 10.24-5.12 12.8-10.24s1.707-11.093-1.707-16.213l-7.68-10.24c-2.56-3.413-1.707-8.533.853-11.093l17.067-17.067c2.56-2.56 7.68-3.413 11.093-.853l13.653 9.387c5.12 3.413 10.24 3.413 16.213 1.707 5.12-2.56 9.387-6.827 10.24-11.947l3.413-16.213c.853-4.267 4.267-6.827 8.533-6.827h23.893c4.267 0 7.68 3.413 8.533 6.827l1.707 12.8c.853 5.973 4.267 10.24 10.24 12.8 5.12 2.56 11.093 1.707 16.213-1.707l10.24-6.827c3.413-2.56 7.68-1.707 11.093.853l17.067 17.067c2.56 2.56 3.413 7.68.853 11.093l-7.68 10.24c-3.413 5.12-4.267 10.24-1.707 16.213 2.56 5.12 6.827 9.387 12.8 10.24l11.947 2.56c4.267.853 6.827 4.267 6.827 8.533v23.893c0 4.267-3.413 7.68-6.827 8.533l-12.8 1.707c-5.973.853-10.24 4.267-12.8 10.24-2.56 5.12-1.707 11.093 1.707 16.213l6.827 10.24c2.56 3.413 1.707 7.68-.853 11.093l-17.067 17.067c-2.56 2.56-7.68 3.413-11.093.853l-7.68-5.12c-5.12-3.413-11.093-4.267-16.213-1.707s-9.387 6.827-10.24 12.8l-1.707 9.387c-4.267 3.414-7.681 6.827-11.947 6.827zm-16.214-17.066h9.387v-1.707c1.707-11.947 9.387-21.333 20.48-26.453 11.093-4.267 23.04-3.413 33.28 4.267l1.707.853 6.827-6.827-4.267-4.267c-6.827-9.387-7.68-22.187-3.413-32.427 4.267-11.093 14.507-17.92 25.6-19.627l5.973-.853v-9.387l-5.12-.853c-11.093-2.56-20.48-10.24-24.747-20.48-4.267-11.093-2.56-23.04 4.267-32.427l3.413-4.267-6.827-7.68-4.267 3.413c-9.387 6.827-22.187 7.68-32.427 3.413-11.093-4.267-17.92-14.507-19.627-25.6l-.853-6.827h-9.387l-1.707 9.387c-2.56 11.093-9.387 20.48-20.48 24.747-10.24 4.267-22.187 3.413-31.573-3.413l-7.68-5.12-6.827 6.827 3.413 4.267c6.827 9.387 8.533 21.333 4.267 32.427-4.267 11.093-13.653 18.773-24.747 20.48l-5.973 1.707v9.387l5.973.853c11.947 1.707 21.333 9.387 25.6 19.627 4.267 11.093 3.413 23.04-3.413 32.427l-2.56 4.267 6.827 6.827 4.267-3.413c9.387-6.827 21.333-8.533 32.427-4.267 11.093 4.267 18.773 13.653 20.48 24.747z"/><path d="m330.093 400.067c-23.893 0-42.667-18.773-42.667-42.667 0-23.893 18.773-42.667 42.667-42.667 23.893 0 42.667 18.773 42.667 42.667 0 23.893-18.773 42.667-42.667 42.667zm0-68.267c-14.507 0-25.6 11.093-25.6 25.6s11.093 25.6 25.6 25.6 25.6-11.093 25.6-25.6-11.093-25.6-25.6-25.6z"/><path d="m210.627 476.867c-5.12 0-8.533-3.413-8.533-8.533v-68.267c0-5.12 3.413-8.533 8.533-8.533s8.533 3.413 8.533 8.533v68.267c0 5.119-3.413 8.533-8.533 8.533z"/><path d="m176.493 109.933h-51.2c-5.12 0-8.533-3.413-8.533-8.533s3.413-8.533 8.533-8.533h51.2c5.12 0 8.533 3.413 8.533 8.533.001 5.12-3.413 8.533-8.533 8.533z"/><path d="m295.96 109.933h-51.2c-5.12 0-8.533-3.413-8.533-8.533s3.413-8.533 8.533-8.533h51.2c5.12 0 8.533 3.413 8.533 8.533s-3.413 8.533-8.533 8.533z"/><path d="m295.96 161.133h-25.6c-5.12 0-8.533-3.413-8.533-8.533s3.413-8.533 8.533-8.533h25.6c5.12 0 8.533 3.413 8.533 8.533s-3.413 8.533-8.533 8.533z"/><path d="m295.96 212.333h-25.6c-5.12 0-8.533-3.413-8.533-8.533s3.413-8.533 8.533-8.533h25.6c5.12 0 8.533 3.413 8.533 8.533s-3.413 8.533-8.533 8.533z"/><path d="m295.96 263.533h-51.2c-5.12 0-8.533-3.413-8.533-8.533s3.413-8.533 8.533-8.533h51.2c5.12 0 8.533 3.413 8.533 8.533s-3.413 8.533-8.533 8.533z"/><path d="m150.893 161.133h-25.6c-5.12 0-8.533-3.413-8.533-8.533s3.413-8.533 8.533-8.533h25.6c5.12 0 8.533 3.413 8.533 8.533.001 5.12-3.413 8.533-8.533 8.533z"/><path d="m150.893 212.333h-25.6c-5.12 0-8.533-3.413-8.533-8.533s3.413-8.533 8.533-8.533h25.6c5.12 0 8.533 3.413 8.533 8.533.001 5.12-3.413 8.533-8.533 8.533z"/><path d="m176.493 263.533h-51.2c-5.12 0-8.533-3.413-8.533-8.533s3.413-8.533 8.533-8.533h51.2c5.12 0 8.533 3.413 8.533 8.533s-3.413 8.533-8.533 8.533z"/><path d="m295.96 511h-170.667c-5.12 0-8.533-3.413-8.533-8.533 0-23.893 18.773-42.667 42.667-42.667h102.4c23.893 0 42.667 18.773 42.667 42.667-.001 5.12-3.414 8.533-8.534 8.533zm-160.427-17.067h151.04c-3.413-10.24-12.8-17.067-23.893-17.067h-103.253c-11.094.001-20.48 6.827-23.894 17.067z"/><path d="m210.627 67.267c-5.12 0-8.533-3.413-8.533-8.533v-51.2c0-5.12 3.413-8.533 8.533-8.533s8.533 3.413 8.533 8.533v51.2c0 5.119-3.413 8.533-8.533 8.533z"/><path d="m210.627 357.4c-5.12 0-8.533-3.413-8.533-8.533v-51.2c0-5.12 3.413-8.533 8.533-8.533s8.533 3.413 8.533 8.533v51.2c0 5.12-3.413 8.533-8.533 8.533z"/><path d="m210.627 220.867c-23.893 0-42.667-18.773-42.667-42.667s18.773-42.667 42.667-42.667 42.667 18.773 42.667 42.667-18.774 42.667-42.667 42.667zm0-68.267c-14.507 0-25.6 11.093-25.6 25.6s11.093 25.6 25.6 25.6 25.6-11.093 25.6-25.6-11.094-25.6-25.6-25.6z"/><path d="m210.627 357.4c-52.053 0-93.867-41.813-93.867-93.867v-170.666c0-52.054 41.813-93.867 93.867-93.867s93.867 41.813 93.867 93.867v170.667c0 10.24-1.707 20.48-5.12 30.72-.853 3.413-4.267 5.973-8.533 5.973-6.827 0-12.8-2.56-17.92-5.973l-6.827-5.12-6.827 6.827 3.413 4.267c9.387 12.8 8.533 29.867-1.707 41.813-.853.853-1.707 1.707-1.707 1.707-15.359 9.385-31.573 13.652-48.639 13.652zm0-341.333c-42.667 0-76.8 34.133-76.8 76.8v170.667c0 42.667 34.133 76.8 76.8 76.8 13.653 0 26.453-3.413 38.4-10.24 3.413-5.12 5.12-12.8 0-19.627l-7.68-10.24c-2.56-3.413-1.707-8.533.853-11.093l17.067-17.067c2.56-2.56 7.68-3.413 11.093-.853l13.653 9.387c.853.853 1.707.853 2.56 1.707 1.707-5.973 2.56-11.947 2.56-17.92v-171.521c-1.706-42.667-35.84-76.8-78.506-76.8z"/><path d="m210.627 408.6c-80.213 0-145.067-64.853-145.067-145.067v-85.333c0-5.12 3.413-8.533 8.533-8.533h51.2c5.12 0 8.533 3.413 8.533 8.533v85.333c0 42.667 34.133 76.8 76.8 76.8 13.653 0 27.307-3.413 39.253-11.093 3.413-2.56 8.533-1.707 11.093 1.707 2.56 3.413 2.56 7.68 0 11.093-5.12 5.973-11.947 10.24-18.773 11.093l-5.973 1.707v9.387l5.973.853c12.8 1.707 23.04 11.093 27.307 23.04 1.707 4.267-.853 8.533-5.12 10.24-17.919 6.827-35.839 10.24-53.759 10.24zm-128-221.867v76.8c0 70.827 57.173 128 128 128 12.8 0 25.6-1.707 37.547-5.973-2.56-2.56-5.12-3.413-8.533-4.267l-12.8-1.707c-4.267-.853-6.827-4.267-6.827-8.533v-13.653c-2.56 0-5.973 0-8.533 0-52.907 0-94.72-41.813-94.72-93.867v-76.8z"/><path d="m292.547 300.227c-.853 0-.853 0-1.707 0-2.56 0-5.12-1.707-6.827-3.413-1.707-2.56-1.707-5.12-.853-7.68 2.56-8.533 4.267-17.067 4.267-25.6v-85.334c0-5.12 3.413-8.533 8.533-8.533h51.2c5.12 0 8.533 3.413 8.533 8.533v85.333 5.973 1.707c0 4.267-3.413 7.68-7.68 7.68s-7.68-1.707-9.387-5.973c-.853-1.707-.853-2.56-.853-4.267l-.853-5.12h-9.387l-1.707 9.387c-3.413 15.36-17.066 27.307-33.279 27.307zm11.946-113.494v76.8c0 5.12-.853 10.24-1.707 15.36 2.56-2.56 5.12-5.12 5.973-9.387l3.413-16.213c.853-4.267 4.267-6.827 8.533-6.827h17.92v-59.733z"/></g></svg>