<?xml version="1.0" encoding="UTF-8" standalone="no"?>
<!DOCTYPE svg PUBLIC "-//W3C//DTD SVG 1.1//EN"
 "http://www.w3.org/Graphics/SVG/1.1/DTD/svg11.dtd">
<!-- Generated by graphviz version 8.0.5 (20230430.1635)
 -->
<!-- Title: plugins/settingswidget.h Pages: 1 -->
<svg width="390pt" height="83pt"
 viewBox="0.00 0.00 389.62 82.50" xmlns="http://www.w3.org/2000/svg" xmlns:xlink="http://www.w3.org/1999/xlink">
<g id="graph0" class="graph" transform="scale(1 1) rotate(0) translate(4 78.5)">
<title>plugins/settingswidget.h</title>
<!-- Node1 -->
<g id="node1" class="node">
<title>Node1</title>
<g id="a_node1"><a xlink:title=" ">
<polygon fill="#999999" stroke="#666666" points="254,-74.5 133.75,-74.5 133.75,-55.25 254,-55.25 254,-74.5"/>
<text text-anchor="middle" x="193.88" y="-61" font-family="Helvetica,sans-Serif" font-size="10.00">plugins/settingswidget.h</text>
</a>
</g>
</g>
<!-- Node2 -->
<g id="node2" class="node">
<title>Node2</title>
<g id="a_node2"><a xlink:title=" ">
<polygon fill="#e0e0e0" stroke="#999999" points="67.75,-19.25 0,-19.25 0,0 67.75,0 67.75,-19.25"/>
<text text-anchor="middle" x="33.88" y="-5.75" font-family="Helvetica,sans-Serif" font-size="10.00">QCheckBox</text>
</a>
</g>
</g>
<!-- Node1&#45;&gt;Node2 -->
<g id="edge1" class="edge">
<title>Node1&#45;&gt;Node2</title>
<path fill="none" stroke="#63b8ff" d="M166.73,-54.84C140.53,-46.12 100.63,-32.84 71.39,-23.11"/>
<polygon fill="#63b8ff" stroke="#63b8ff" points="72.74,-19.54 62.15,-19.7 70.53,-26.18 72.74,-19.54"/>
</g>
<!-- Node3 -->
<g id="node3" class="node">
<title>Node3</title>
<g id="a_node3"><a xlink:title=" ">
<polygon fill="#e0e0e0" stroke="#999999" points="152,-19.25 85.75,-19.25 85.75,0 152,0 152,-19.25"/>
<text text-anchor="middle" x="118.88" y="-5.75" font-family="Helvetica,sans-Serif" font-size="10.00">QGroupBox</text>
</a>
</g>
</g>
<!-- Node1&#45;&gt;Node3 -->
<g id="edge2" class="edge">
<title>Node1&#45;&gt;Node3</title>
<path fill="none" stroke="#63b8ff" d="M181.15,-54.84C170.05,-46.96 153.72,-35.36 140.56,-26.02"/>
<polygon fill="#63b8ff" stroke="#63b8ff" points="142.84,-22.64 132.66,-19.7 138.79,-28.35 142.84,-22.64"/>
</g>
<!-- Node4 -->
<g id="node4" class="node">
<title>Node4</title>
<g id="a_node4"><a xlink:title=" ">
<polygon fill="#e0e0e0" stroke="#999999" points="217.62,-19.25 170.12,-19.25 170.12,0 217.62,0 217.62,-19.25"/>
<text text-anchor="middle" x="193.88" y="-5.75" font-family="Helvetica,sans-Serif" font-size="10.00">QLabel</text>
</a>
</g>
</g>
<!-- Node1&#45;&gt;Node4 -->
<g id="edge3" class="edge">
<title>Node1&#45;&gt;Node4</title>
<path fill="none" stroke="#63b8ff" d="M193.88,-55.08C193.88,-48.42 193.88,-38.99 193.88,-30.53"/>
<polygon fill="#63b8ff" stroke="#63b8ff" points="197.38,-30.61 193.88,-20.61 190.38,-30.61 197.38,-30.61"/>
</g>
<!-- Node5 -->
<g id="node5" class="node">
<title>Node5</title>
<g id="a_node5"><a xlink:title=" ">
<polygon fill="#e0e0e0" stroke="#999999" points="310.12,-19.25 235.62,-19.25 235.62,0 310.12,0 310.12,-19.25"/>
<text text-anchor="middle" x="272.88" y="-5.75" font-family="Helvetica,sans-Serif" font-size="10.00">QPushButton</text>
</a>
</g>
</g>
<!-- Node1&#45;&gt;Node5 -->
<g id="edge4" class="edge">
<title>Node1&#45;&gt;Node5</title>
<path fill="none" stroke="#63b8ff" d="M207.28,-54.84C219.08,-46.89 236.51,-35.14 250.44,-25.75"/>
<polygon fill="#63b8ff" stroke="#63b8ff" points="252.07,-28.19 258.41,-19.7 248.16,-22.39 252.07,-28.19"/>
</g>
<!-- Node6 -->
<g id="node6" class="node">
<title>Node6</title>
<g id="a_node6"><a xlink:title=" ">
<polygon fill="#e0e0e0" stroke="#999999" points="381.62,-19.25 328.12,-19.25 328.12,0 381.62,0 381.62,-19.25"/>
<text text-anchor="middle" x="354.88" y="-5.75" font-family="Helvetica,sans-Serif" font-size="10.00">QWidget</text>
</a>
</g>
</g>
<!-- Node1&#45;&gt;Node6 -->
<g id="edge5" class="edge">
<title>Node1&#45;&gt;Node6</title>
<path fill="none" stroke="#63b8ff" d="M221.19,-54.84C247.63,-46.09 287.95,-32.76 317.39,-23.02"/>
<polygon fill="#63b8ff" stroke="#63b8ff" points="318.3,-26.08 326.7,-19.61 316.11,-19.43 318.3,-26.08"/>
</g>
</g>
</svg>
